<?xml version="1.0" standalone="no"?>
<!DOCTYPE svg PUBLIC "-//W3C//DTD SVG 20010904//EN"
 "http://www.w3.org/TR/2001/REC-SVG-20010904/DTD/svg10.dtd">
<svg version="1.0" xmlns="http://www.w3.org/2000/svg"
 width="600.000000pt" height="600.000000pt" viewBox="0 0 600.000000 600.000000"
 preserveAspectRatio="xMidYMid meet">

<g transform="translate(0.000000,600.000000) scale(0.100000,-0.100000)"
fill="#000000" stroke="none">
<path d="M3105 5300 c-587 -34 -1112 -225 -1525 -557 -119 -95 -413 -392 -486
-489 -125 -166 -265 -423 -325 -594 -45 -128 -46 -210 -5 -293 51 -105 155
-156 426 -211 439 -87 606 -89 1069 -10 79 14 148 27 152 30 21 12 5 -21 -52
-113 -358 -571 -587 -984 -641 -1158 -30 -94 -32 -293 -5 -372 23 -65 92 -144
152 -172 67 -31 325 -79 497 -93 249 -19 633 9 852 62 46 11 92 20 102 20 11
0 60 -39 109 -86 113 -107 258 -218 378 -288 119 -70 441 -206 585 -248 103
-29 113 -31 128 -16 22 22 11 49 -34 76 -52 33 -74 67 -80 123 -10 104 37 200
136 279 68 54 123 75 270 100 182 31 251 60 340 144 89 83 132 200 83 225 -9
4 -34 9 -56 10 -123 6 -432 132 -604 246 l-41 28 104 107 c241 250 363 450
479 790 61 180 72 249 72 485 0 228 -17 384 -60 549 -56 217 -144 402 -240
505 -33 36 -80 91 -103 122 -121 160 -523 494 -756 627 -155 89 -359 150 -575
172 -111 11 -147 11 -346 0z m495 -96 c218 -43 355 -102 524 -223 516 -370
743 -634 834 -971 23 -87 25 -112 26 -305 0 -192 -2 -221 -27 -337 -41 -191
-166 -544 -240 -677 -53 -95 -163 -254 -231 -331 -81 -92 -271 -268 -351 -325
-203 -145 -525 -306 -750 -376 -95 -29 -282 -67 -443 -90 -127 -18 -179 -20
-382 -16 -254 5 -371 20 -495 64 -38 14 -83 26 -100 26 -25 2 -30 -2 -33 -24
-3 -23 3 -30 40 -47 124 -60 366 -95 653 -96 182 0 393 21 530 54 33 8 42 7
50 -6 6 -9 25 -36 42 -59 29 -38 31 -44 15 -49 -202 -57 -338 -71 -697 -71
-280 0 -322 2 -430 23 -220 41 -265 59 -316 122 -65 81 -76 261 -25 414 44
129 195 416 394 746 325 539 522 831 791 1170 73 92 111 137 475 559 236 274
284 353 255 423 -15 36 -37 48 -90 48 -55 0 -121 -32 -159 -78 -35 -43 -38
-67 -10 -82 17 -9 26 -5 60 30 61 62 130 81 130 37 0 -40 -69 -132 -276 -371
-454 -523 -580 -681 -784 -981 -89 -129 -111 -144 -265 -175 -322 -65 -616
-85 -813 -56 -214 32 -462 85 -536 116 -162 68 -196 173 -120 374 43 115 149
315 233 442 157 238 471 545 731 717 361 238 831 383 1320 406 204 10 326 3
470 -25z m1495 -1559 c22 -154 25 -474 6 -575 -29 -158 -127 -419 -214 -574
-28 -49 -83 -133 -123 -187 -75 -99 -253 -292 -285 -309 -14 -8 -29 0 -71 35
-79 68 -79 69 -13 128 140 125 319 356 399 516 73 144 175 425 216 593 39 158
64 363 57 463 -8 112 7 65 28 -90z m-757 -1646 c178 -160 594 -370 782 -395
28 -4 53 -10 55 -14 7 -11 -45 -79 -89 -118 -65 -57 -126 -80 -306 -116 -140
-28 -182 -41 -227 -68 -76 -46 -149 -122 -186 -193 -28 -53 -31 -70 -32 -145
0 -47 4 -97 9 -112 l8 -28 -63 24 c-158 60 -382 161 -467 212 -177 106 -394
295 -496 434 -25 34 -46 66 -46 70 0 4 30 15 68 25 195 52 429 156 650 288 85
51 179 113 210 139 31 26 61 47 65 47 5 1 34 -22 65 -50z"/>
<path d="M4208 1969 c-53 -31 27 -118 249 -267 234 -159 445 -257 491 -228 58
36 -106 182 -402 358 -183 110 -304 158 -338 137z m138 -79 c185 -83 565 -343
540 -368 -12 -11 -255 119 -390 209 -130 86 -253 188 -228 189 7 0 42 -13 78
-30z"/>
<path d="M4014 1829 c-3 -6 0 -17 7 -24 8 -7 159 -101 337 -210 l323 -198 57
12 c61 12 78 23 67 41 -5 9 -25 10 -64 6 l-56 -6 -170 103 c-93 57 -237 145
-320 195 -82 51 -155 92 -162 92 -6 0 -15 -5 -19 -11z"/>
<path d="M3845 1740 c-4 -7 1 -20 11 -30 19 -17 598 -388 620 -397 6 -2 28 7
49 21 21 14 46 26 57 26 23 0 36 29 18 40 -15 9 -63 -3 -95 -24 -22 -15 -36
-7 -322 176 -164 105 -305 193 -314 195 -9 3 -20 -1 -24 -7z"/>
<path d="M3723 1668 c-40 -19 -63 -36 -63 -46 0 -10 40 -55 88 -102 182 -176
439 -320 571 -320 40 0 56 6 94 36 48 38 58 60 32 70 -9 4 -31 -8 -55 -30 -48
-43 -67 -44 -166 -11 -68 23 -204 92 -229 116 -6 6 2 19 23 35 17 14 32 32 32
40 0 22 -36 16 -68 -11 -17 -14 -35 -25 -41 -25 -11 0 -174 134 -205 169 -22
24 -24 22 32 50 28 14 42 28 42 41 0 26 -12 24 -87 -12z"/>
<path d="M3550 1579 c0 -13 44 -64 121 -141 l120 -121 -25 -25 -25 -25 -72 59
c-40 32 -102 91 -138 131 -66 73 -91 88 -91 55 0 -37 125 -165 265 -274 156
-119 384 -244 465 -255 37 -5 42 -4 38 13 -2 12 -24 25 -67 41 -104 37 -351
179 -351 202 0 5 8 19 18 32 l19 22 77 -51 c137 -91 324 -166 370 -149 26 10
18 36 -11 42 -208 42 -430 185 -630 408 -54 59 -83 72 -83 36z"/>
</g>
</svg>
