<?xml version="1.0" standalone="no"?>
<!DOCTYPE svg PUBLIC "-//W3C//DTD SVG 20010904//EN"
 "http://www.w3.org/TR/2001/REC-SVG-20010904/DTD/svg10.dtd">
<svg version="1.0" xmlns="http://www.w3.org/2000/svg"
 width="1080.000000pt" height="1080.000000pt" viewBox="0 0 1080.000000 1080.000000"
 preserveAspectRatio="xMidYMid meet">
<metadata>
Created by potrace 1.16, written by Peter Selinger 2001-2019
</metadata>
<g transform="translate(0.000000,1080.000000) scale(0.100000,-0.100000)"
fill="#000000" stroke="none">
<path d="M5155 9783 c-617 -24 -1165 -181 -1765 -505 -1056 -570 -1769 -1465
-2109 -2650 -27 -95 -59 -218 -70 -273 -68 -340 -89 -972 -46 -1365 59 -526
249 -1112 512 -1578 279 -496 685 -962 1159 -1329 546 -424 1170 -692 1904
-817 220 -37 435 -50 750 -43 451 10 693 41 1030 134 1317 362 2345 1270 2863
2528 74 180 182 508 211 640 85 388 117 1023 75 1500 -33 370 -182 891 -370
1293 -569 1214 -1668 2092 -2979 2381 -124 27 -268 54 -320 60 -205 24 -583
35 -845 24z m646 -268 c764 -80 1458 -365 2062 -848 417 -333 656 -605 920
-1045 305 -507 463 -960 533 -1527 22 -178 31 -720 14 -908 -25 -294 -76 -529
-190 -869 -186 -556 -442 -984 -849 -1423 -174 -187 -352 -350 -402 -368 -25
-8 -35 4 -53 68 -10 33 -55 135 -102 228 -46 92 -84 172 -84 176 0 16 305 325
408 414 53 46 123 100 154 120 132 84 168 211 103 367 -36 87 -38 124 -15 266
47 277 5 672 -100 942 -33 87 -120 237 -189 327 -270 357 -754 587 -1176 560
-237 -15 -481 -63 -629 -125 -245 -102 -557 -398 -724 -686 -61 -106 -81 -162
-118 -349 -19 -93 -53 -239 -76 -322 l-42 -153 78 -160 c47 -96 80 -178 83
-204 5 -39 2 -48 -29 -82 -48 -54 -60 -79 -60 -130 0 -58 10 -100 35 -149 52
-103 110 -145 201 -145 76 0 104 -17 165 -99 115 -155 332 -327 516 -411 134
-61 158 -74 163 -89 9 -28 -152 12 -289 72 l-36 16 -91 -187 c-127 -263 -145
-324 -187 -620 -29 -197 -42 -252 -61 -252 -22 0 -32 29 -95 282 -33 134 -80
320 -105 413 -63 235 -355 1256 -365 1276 -5 10 -33 21 -68 28 -99 19 -421
108 -500 137 -96 36 -141 77 -141 131 0 51 24 82 93 121 29 17 88 59 131 94
210 171 268 208 350 223 50 10 79 38 70 68 -4 12 -27 54 -52 92 -59 92 -62
132 -12 157 21 11 58 18 92 18 60 0 107 13 120 33 14 22 7 62 -31 180 -35 106
-37 118 -23 126 10 5 82 39 162 76 157 72 240 120 240 139 0 16 -57 56 -194
137 -112 66 -196 136 -196 164 0 17 38 36 180 91 198 76 519 252 504 276 -6
10 -222 117 -438 217 l-89 41 94 87 c149 138 390 376 401 396 5 10 7 21 4 25
-4 3 -66 12 -139 19 -134 14 -330 50 -424 78 -44 13 -53 20 -53 38 0 22 77
166 234 437 80 137 121 220 109 220 -4 0 -129 -41 -278 -91 -148 -50 -293 -93
-322 -96 l-52 -6 -15 54 c-38 135 -71 469 -61 631 8 143 6 145 -98 95 -126
-60 -295 -190 -488 -375 -99 -95 -122 -112 -134 -102 -8 7 -95 112 -194 234
-198 245 -267 316 -305 316 -29 0 -30 -2 -45 -128 -24 -192 -126 -582 -153
-582 -5 0 -68 21 -141 46 -351 123 -415 143 -454 144 -23 0 -44 -4 -47 -8 -3
-5 11 -46 31 -93 64 -153 122 -333 132 -409 19 -140 19 -133 -14 -141 -39 -11
-258 -35 -490 -54 -104 -9 -214 -20 -244 -25 -30 -6 -56 -10 -58 -10 -16 0 17
-40 135 -163 75 -78 166 -181 201 -227 58 -77 121 -189 121 -215 0 -26 -158
-158 -346 -289 -61 -42 -127 -94 -148 -115 -46 -47 -51 -42 110 -99 144 -51
214 -88 313 -162 86 -65 131 -115 131 -145 0 -22 -45 -77 -173 -213 -100 -107
-154 -183 -142 -202 11 -17 91 -54 240 -110 209 -79 199 -71 192 -138 -2 -32
-21 -117 -42 -190 -39 -142 -40 -175 -2 -189 12 -4 101 -6 198 -5 l176 3 10
-112 c9 -84 16 -119 31 -138 27 -36 73 -33 136 8 28 17 61 31 75 31 15 0 70
-27 124 -59 54 -33 129 -72 167 -86 39 -15 77 -36 85 -48 21 -30 19 -89 -5
-119 -29 -37 -79 -58 -408 -169 -163 -55 -303 -104 -311 -108 -31 -18 -115
-272 -266 -811 -53 -190 -98 -346 -100 -348 -5 -5 -31 25 -176 198 -487 584
-765 1112 -919 1745 -75 307 -90 460 -90 920 0 432 14 596 71 840 281 1197
1055 2184 2124 2705 409 200 879 336 1310 379 61 6 124 13 140 15 93 10 547 4
676 -9z m-2106 -2912 c72 -30 105 -52 163 -107 83 -79 115 -182 98 -320 l-8
-57 -338 3 c-310 3 -340 5 -358 21 -60 54 -24 216 79 354 42 56 95 92 181 123
62 23 95 20 183 -17z m863 -149 c150 -31 280 -102 317 -175 32 -60 8 -160 -42
-180 -22 -9 -51 -7 -138 10 -60 11 -166 28 -235 36 -301 37 -300 37 -300 123
0 103 49 174 135 195 45 11 191 6 263 -9z m-1348 -1588 c38 -92 83 -189 100
-215 33 -52 38 -81 15 -81 -47 0 -189 304 -211 453 -6 39 -5 41 10 26 9 -8 48
-91 86 -183z m3453 -193 c93 -155 117 -245 97 -363 -26 -156 -127 -286 -277
-358 -77 -36 -80 -37 -198 -37 -109 1 -126 3 -185 29 -138 60 -239 154 -279
260 -19 51 -40 216 -27 216 3 0 94 13 201 30 352 53 427 82 544 203 41 42 78
77 82 77 4 0 23 -26 42 -57z m507 7 c23 -46 86 -101 149 -131 67 -32 246 -65
417 -78 82 -7 168 -14 191 -17 l42 -5 -5 -52 c-16 -155 -53 -245 -133 -325
-51 -51 -139 -99 -222 -123 -71 -20 -234 -15 -302 9 -141 51 -251 155 -292
277 -20 61 -23 190 -5 265 22 95 106 240 131 225 5 -4 18 -24 29 -45z m-2469
-848 c57 -97 206 -392 275 -544 145 -321 137 -379 -75 -601 -93 -97 -127 -124
-139 -113 -11 12 24 60 117 160 113 122 164 196 163 235 -1 42 -73 212 -217
512 -138 286 -205 434 -205 451 0 22 33 -18 81 -100z m-216 -3 c19 -36 49
-167 69 -305 47 -314 74 -712 50 -721 -24 -8 -50 159 -94 592 -16 165 -34 330
-40 367 -16 107 -13 121 15 67z m-697 -155 c3 -78 -34 -674 -42 -682 -9 -8
-17 447 -10 579 7 159 15 204 37 197 8 -3 13 -34 15 -94z m-307 -940 c73 -53
139 -131 139 -164 0 -33 -21 -53 -52 -48 -17 2 -22 9 -21 26 4 33 -11 56 -83
133 -35 38 -64 73 -64 79 0 20 33 10 81 -26z"/>
</g>
</svg>
